<svg xmlns="http://www.w3.org/2000/svg" viewBox="0 0 1920 153.49"><title>Asset 1</title><g id="Layer_2" data-name="Layer 2"><g id="Layer_1-2" data-name="Layer 1"><path d="M50.61,149.31q-3.66-.23-9-.46t-12-.23l-16.86.23q-4.57.24-12.31.23c-.31,0-.46-.46-.46-1.37s.15-1.36.46-1.36q7.29,0,10.71-1.14a7.15,7.15,0,0,0,4.67-4.45q1.26-3.3,1.26-10.14V25.07c0-4.55-.42-7.9-1.26-10a7.53,7.53,0,0,0-4.56-4.44Q8,9.36.91,9.35C.46,9.35.23,8.89.23,8S.46,6.61.91,6.61L13,6.84q10.49.45,16.64.45,9.35,0,19.15-.68,11.85-.45,16-.46,23,0,40.92,9.12t27.69,24.85a65.47,65.47,0,0,1,9.8,35.33q0,22.11-10.14,39.1a69.73,69.73,0,0,1-27.35,26.21A78.5,78.5,0,0,1,67.93,150Q60.63,150,50.61,149.31Zm40.8-12q11.16-7.41,17.44-22t6.27-34.87a99.87,99.87,0,0,0-5.93-35.22q-5.93-15.84-16.87-25A38.35,38.35,0,0,0,67,11.17q-14.14,0-19.38,2.74T42.4,25.53V128.11q0,9.12,4.79,12.88t18.46,3.76A45.54,45.54,0,0,0,91.41,137.34Z"/><path d="M209.48,140.87a6.83,6.83,0,0,0,4.45,4.34q3.3,1.14,10.6,1.14c.45,0,.68.45.68,1.36s-.23,1.37-.68,1.37q-7.53,0-11.86-.23l-17.32-.23-16.87.23q-4.56.24-12.31.23c-.3,0-.45-.46-.45-1.37s.15-1.36.45-1.36c4.86,0,8.44-.38,10.72-1.14a7.17,7.17,0,0,0,4.67-4.45q1.24-3.3,1.25-10.14V25.07c0-4.55-.42-7.9-1.25-10a7.57,7.57,0,0,0-4.67-4.44c-2.28-.83-5.86-1.25-10.72-1.25-.3,0-.45-.46-.45-1.37s.15-1.37.45-1.37l12.31.23q10.49.45,16.87.45,7.07,0,17.55-.45l11.63-.23c.45,0,.68.46.68,1.37s-.23,1.37-.68,1.37q-7.07,0-10.49,1.36a7.55,7.55,0,0,0-4.56,4.68q-1.14,3.3-1.14,10.14V130.62Q208.34,137.69,209.48,140.87Z"/><path d="M401.42,147.71c0,.91-.38,1.37-1.14,1.37q-4.56,0-14.14-.46-10-.45-14.36-.45-5.7,0-13.9.45-7.75.47-12.31.46c-.61,0-.91-.46-.91-1.37s.3-1.36.91-1.36q5.93,0,8.55-1.26a4.5,4.5,0,0,0,2.62-4.44q0-3.89-4.56-13L305.9,36.24l11.17-19.6L271.71,116.71a30.36,30.36,0,0,0-3,12.31q0,8.21,5.81,12.77t15.62,4.56c.75,0,1.14.45,1.14,1.36s-.39,1.37-1.14,1.37q-4.11,0-11.86-.46-8.65-.45-15-.45-6.15,0-14.82.45c-5.17.31-9.34.46-12.54.46-.6,0-.91-.46-.91-1.37s.31-1.36.91-1.36a20.35,20.35,0,0,0,10.72-2.63q4.32-2.61,8.66-9.34a160.48,160.48,0,0,0,10.26-19.95L315,5.7c.31-.46,1-.68,2.05-.68,1.22,0,1.9.22,2.06.68l57,112.15q8,16.18,13.23,22.34t10.94,6.16C401,146.35,401.42,146.8,401.42,147.71ZM290,74.54h47l1.59,6.38h-52Z"/><path d="M431.27,11.85l6.61.46-2.5,107.82q-.24,12.31,4.9,19.26t14.47,7c.46,0,.69.45.69,1.36s-.23,1.37-.69,1.37c-4.1,0-7.29-.07-9.57-.23l-12.54-.23-14.36.23c-2.43.16-5.7.23-9.8.23-.46,0-.68-.46-.68-1.37s.22-1.36.68-1.36a17.76,17.76,0,0,0,14.82-7.07q5.46-7.07,5.69-19.15ZM592.66,147.71c0,.91-.15,1.37-.45,1.37q-7.76,0-12.31-.23L563,148.62l-17.1.23q-4.32.24-11.85.23c-.45,0-.68-.46-.68-1.37s.23-1.36.68-1.36q7.29,0,10.83-1.26a7.17,7.17,0,0,0,4.67-4.44q1.14-3.19.69-10L545,29.41l11.63-18.24L498.52,147.49a2.29,2.29,0,0,1-3.65,0l-64.05-122q-4.56-8.43-9.46-12.31a17.7,17.7,0,0,0-11.28-3.87c-.46,0-.69-.46-.69-1.37s.23-1.37.69-1.37l10.71.23c2.12.15,4.86.23,8.2.23l12.09-.23a49.38,49.38,0,0,1,5.24-.23,5.44,5.44,0,0,1,4.56,2.05,102.11,102.11,0,0,1,5.93,9.8l51.06,95.74-11.4,20.52L549.81,12.31a12.08,12.08,0,0,1,2.85-4.45,6,6,0,0,1,4-1.25c1.37,0,2.92.08,4.67.23s3.76.23,6,.23l13.45-.23q3.2-.22,9.12-.23c.45,0,.68.46.68,1.37s-.23,1.37-.68,1.37q-10.73,0-15.5,4.33T570.1,27.13l5.47,103.49q.45,7.06,1.71,10.25a7.16,7.16,0,0,0,4.56,4.34q3.3,1.14,10.37,1.14C592.51,146.35,592.66,146.8,592.66,147.71Z"/><path d="M645.66,141.9A67.89,67.89,0,0,1,620.13,115a77.76,77.76,0,0,1-9-37q0-23.47,11.85-40.23a74.21,74.21,0,0,1,30.43-25.19,91,91,0,0,1,38-8.44q21.66,0,38.07,10.15A68.76,68.76,0,0,1,754.62,41a74.72,74.72,0,0,1,8.78,35.33,69.9,69.9,0,0,1-10.94,38.07,78.67,78.67,0,0,1-29.3,27.36,81.55,81.55,0,0,1-39.77,10Q662.18,151.82,645.66,141.9Zm68.16-3.19q10.14-7.41,15.84-21.66T735.36,83q0-21-6.38-37.49T710.51,19.6a44.84,44.84,0,0,0-28.26-9.34q-20.75,0-31.92,15.61T639.16,69.53q0,22.11,6.73,39.54t18.46,27.25a40.36,40.36,0,0,0,26.56,9.8A37.89,37.89,0,0,0,713.82,138.71Z"/><path d="M921,153.41a1.52,1.52,0,0,1-1.48-.23L807.16,25.3q-8-9.1-13.68-12.53a22.33,22.33,0,0,0-11.62-3.42c-.31,0-.46-.46-.46-1.37s.15-1.37.46-1.37l9.57.23c2,.15,4.86.23,8.67.23l17.32-.23q3.2-.22,7.75-.23a3.73,3.73,0,0,1,2.73.91,46.78,46.78,0,0,1,3.2,3.88q3.87,5.25,5.47,7.06l83.66,96.43,1.82,37.61C922.05,153,921.71,153.26,921,153.41ZM805.79,11.85l6.84.46V120.13q0,12.09,5,19.15a16.11,16.11,0,0,0,13.9,7.07c.3,0,.46.45.46,1.36s-.16,1.37-.46,1.37c-4.25,0-7.52-.07-9.8-.23l-12.31-.23-14.13.23c-2.59.16-6.31.23-11.17.23-.46,0-.69-.46-.69-1.37s.23-1.36.69-1.36q10,0,15.84-7.07t5.81-19.15ZM922.05,152.5l-6.61-6.84V35.79q0-12.32-5-19.38a16.1,16.1,0,0,0-13.9-7.06c-.31,0-.46-.46-.46-1.37s.15-1.37.46-1.37l9.8.23q7.29.45,12.31.45,4.56,0,12.76-.45l10.26-.23c.31,0,.46.46.46,1.37s-.15,1.37-.46,1.37a16.82,16.82,0,0,0-14.36,7.18Q922,23.7,922.05,35.79Z"/><path d="M1003.65,149.31q-3.64-.23-9-.46t-12-.23l-16.87.23q-4.56.24-12.31.23c-.31,0-.45-.46-.45-1.37s.14-1.36.45-1.36c4.86,0,8.44-.38,10.72-1.14a7.19,7.19,0,0,0,4.67-4.45q1.25-3.3,1.25-10.14V25.07c0-4.55-.42-7.9-1.25-10a7.59,7.59,0,0,0-4.56-4.44c-2.21-.83-5.66-1.25-10.37-1.25-.46,0-.69-.46-.69-1.37s.23-1.37.69-1.37L966,6.84q10.49.45,16.64.45,9.35,0,19.15-.68,11.85-.45,15.95-.46,23,0,40.92,9.12t27.7,24.85a65.47,65.47,0,0,1,9.8,35.33q0,22.11-10.14,39.1a69.82,69.82,0,0,1-27.36,26.21A78.46,78.46,0,0,1,1021,150Q1013.68,150,1003.65,149.31Zm40.81-12q11.16-7.41,17.43-22t6.27-34.87a99.64,99.64,0,0,0-5.93-35.22q-5.93-15.84-16.86-25a38.37,38.37,0,0,0-25.31-9.12q-14.13,0-19.37,2.74t-5.25,11.62V128.11q0,9.12,4.79,12.88t18.47,3.76A45.54,45.54,0,0,0,1044.46,137.34Z"/><path d="M1206.86,44.22a46.43,46.43,0,0,0,10.38,11.17q6.15,4.78,16.64,11.63a221.21,221.21,0,0,1,18.23,12.76,50.64,50.64,0,0,1,11.63,13.34,34.15,34.15,0,0,1,4.79,18.12,36.18,36.18,0,0,1-6.39,21.09,42.06,42.06,0,0,1-17.66,14.36,60.2,60.2,0,0,1-25.19,5.13A87.24,87.24,0,0,1,1198,149q-11.28-2.85-15.15-6.27a8.56,8.56,0,0,1-1.71-1.71,4.54,4.54,0,0,1-.57-2.62l-.69-36.25v-.23q0-.9,1.14-1c.76-.08,1.22.19,1.37.8q6.84,13.9,12,22.56a59.38,59.38,0,0,0,13,15.28,27,27,0,0,0,17.89,6.61q9.12,0,15-4.9t5.93-16.76a33.89,33.89,0,0,0-4.45-17.55,47.69,47.69,0,0,0-10.83-12.77,205.45,205.45,0,0,0-17.55-12.53,183,183,0,0,1-17-12.08A48.24,48.24,0,0,1,1186,57.44a31.14,31.14,0,0,1-4.33-16.64q0-12.07,7-20.4a41.22,41.22,0,0,1,17.89-12.31,67,67,0,0,1,23-4,91.7,91.7,0,0,1,16.18,1.48A67.4,67.4,0,0,1,1259,9.12a6.32,6.32,0,0,1,2.74,1.94,4.68,4.68,0,0,1,.68,2.62V47.19q0,.68-1.14,1c-.76.23-1.22.12-1.37-.34L1258,43.54a102.68,102.68,0,0,0-13.34-24.39q-7.64-10-21.31-10-9.12,0-14.93,5.24t-5.81,15.27A25.86,25.86,0,0,0,1206.86,44.22Z"/><path d="M1407.23,16.41q-5.58-7.07-15.61-7.06c-.31,0-.46-.46-.46-1.37s.15-1.37.46-1.37l10.94.23q8.65.45,13.9.45,4.33,0,12.54-.45l10.49-.23c.3,0,.45.46.45,1.37s-.15,1.37-.45,1.37a16.1,16.1,0,0,0-13.91,7.06q-5,7.07-5,19.38V99.16q0,16-7.07,28a47.23,47.23,0,0,1-20,18.58q-12.87,6.5-29.74,6.49T1334,145.89a48.21,48.21,0,0,1-20.41-18.58q-7.41-12.19-7.4-28.61V25.07c0-4.55-.43-7.9-1.26-10a7.59,7.59,0,0,0-4.56-4.44Q1297,9.36,1290,9.35c-.45,0-.68-.46-.68-1.37s.23-1.37.68-1.37l12.08.23q10.48.45,16.64.45,6.84,0,17.33-.45l11.62-.23c.46,0,.69.46.69,1.37s-.23,1.37-.69,1.37q-7.06,0-10.37,1.36a8,8,0,0,0-4.56,4.68q-1.25,3.3-1.25,10.14V90.72q0,27.14,10.71,40.12t30.32,13q18.91,0,29.63-11.51t10.72-32.94V35.79Q1412.82,23.48,1407.23,16.41Z"/><path d="M1456.81,47.19c-.16.45-.61.64-1.37.57s-1.14-.35-1.14-.8q.92-9.12,2-23.59t1.14-21.77q0-1.14,1.26-1.14c.83,0,1.25.38,1.25,1.14q0,5,13,5,19.6.69,45.82.68,13.45,0,28.49-.45l15.51-.23q8.65,0,12.65-1.14a7,7,0,0,0,5.13-4.56c.14-.6.64-.91,1.48-.91s1.25.31,1.25.91q-.67,6.84-1.48,21.89T1581,47c0,.45-.38.68-1.14.68s-1.22-.23-1.37-.68q-3.42-17.55-12.76-26.33t-23-8.78q-6.62,0-8.78,2.85t-2.17,10.83V130.62q0,7.06,1.37,10.25a7.66,7.66,0,0,0,5.25,4.34q3.87,1.14,12.3,1.14c.46,0,.69.45.69,1.36s-.23,1.37-.69,1.37q-8.21,0-13-.23l-18.92-.23-18.46.23q-4.78.24-13.22.23c-.46,0-.69-.46-.69-1.37s.23-1.36.69-1.36q8.2,0,12.19-1.14a8,8,0,0,0,5.47-4.45q1.49-3.3,1.48-10.14V25.07q0-7.74-2-10.48c-1.37-1.82-4.18-2.74-8.43-2.74Q1468.66,11.85,1456.81,47.19Z"/><path d="M1695.36,13.56q11.51,7.65,11.51,21.32A35.71,35.71,0,0,1,1699.8,56a52.46,52.46,0,0,1-18.46,16,49.54,49.54,0,0,1-23.48,6q-8.89,0-12.54-.23v52.89q0,7.06,1.14,10.25a6.83,6.83,0,0,0,4.45,4.34q3.3,1.14,10.6,1.14c.3,0,.45.45.45,1.36s-.15,1.37-.45,1.37q-7.53,0-11.86-.23l-17.32-.23-16.64.23q-4.56.24-12.31.23c-.46,0-.69-.46-.69-1.37s.23-1.36.69-1.36q7.29,0,10.6-1.14a7.18,7.18,0,0,0,4.56-4.45q1.24-3.3,1.25-10.14V25.07c0-4.55-.38-7.9-1.14-10a7.2,7.2,0,0,0-4.56-4.44c-2.28-.83-5.78-1.25-10.48-1.25-.31,0-.46-.46-.46-1.37s.15-1.37.46-1.37l12.08.23q10.49.45,16.64.45,6.84,0,14.59-.68,2.5-.23,6.49-.46c2.66-.14,5.82-.22,9.46-.22Q1683.84,5.93,1695.36,13.56Zm-20.18,4.22q-5.46-7.07-15.73-7.07-7.74,0-10.94,3.42t-3.19,11.4V71.12a81.66,81.66,0,0,0,13.22.91q8.2,0,13-2.5t7-8.67q2.16-6.15,2.16-17.32Q1680.65,24.85,1675.18,17.78Zm20.29,111.7q-14.13-19.6-34.19-54.94l21-6.61q18.91,29.86,31.57,46.5t22.45,24.28q9.81,7.64,19.15,7.64c.3,0,.46.45.46,1.36s-.16,1.37-.46,1.37h-40.57Q1709.6,149.08,1695.47,129.48Z"/><path d="M1920,147.71c0,.91-.38,1.37-1.14,1.37q-4.56,0-14.13-.46-10-.45-14.36-.45-5.7,0-13.91.45-7.76.47-12.31.46c-.61,0-.91-.46-.91-1.37s.3-1.36.91-1.36q5.92,0,8.55-1.26a4.49,4.49,0,0,0,2.62-4.44q0-3.89-4.56-13l-46.27-91.41,11.17-19.6L1790.3,116.71a30.22,30.22,0,0,0-3,12.31q0,8.21,5.82,12.77t15.61,4.56c.76,0,1.14.45,1.14,1.36s-.38,1.37-1.14,1.37q-4.11,0-11.85-.46-8.67-.45-15.05-.45-6.15,0-14.81.45-7.75.47-12.54.46c-.61,0-.91-.46-.91-1.37s.3-1.36.91-1.36a20.34,20.34,0,0,0,10.71-2.63q4.33-2.61,8.66-9.34a157.77,157.77,0,0,0,10.26-19.95L1833.61,5.7c.3-.46,1-.68,2.05-.68s1.9.22,2,.68l57,112.15q8,16.18,13.22,22.34t10.94,6.16C1919.62,146.35,1920,146.8,1920,147.71ZM1808.53,74.54h47l1.6,6.38h-52Z"/></g></g></svg>